HIERARCHY
ROOT Hips
{
	OFFSET -44.602631 92.727097 387.457703
	CHANNELS 6 Xposition Yposition Zposition Zrotation Yrotation Xrotation 
	JOINT LeftUpLeg
	{
		OFFSET 0.103457 1.857834 10.548504
		CHANNELS 3 Xrotation Yrotation Zrotation
		JOINT LeftLeg
		{
			OFFSET 43.499996 -0.000046 0.000000
			CHANNELS 3 Xrotation Yrotation Zrotation
			JOINT LeftFoot
			{
				OFFSET 42.372192 0.000027 0.000002
				CHANNELS 3 Xrotation Yrotation Zrotation
				JOINT LeftToe
				{
					OFFSET 17.299994 -0.000003 -0.000001
					CHANNELS 3 Xrotation Yrotation Zrotation
					End Site
					{
						OFFSET 0.000000 0.000000 0.000000
					}
				}
			}
		}
	}
	JOINT RightUpLeg
	{
		OFFSET 0.103456 1.857832 -10.548504
		CHANNELS 3 Xrotation Yrotation Zrotation
		JOINT RightLeg
		{
			OFFSET 43.500046 -0.000011 0.000010
			CHANNELS 3 Xrotation Yrotation Zrotation
			JOINT RightFoot
			{
				OFFSET 42.372261 -0.000034 0.000021
				CHANNELS 3 Xrotation Yrotation Zrotation
				JOINT RightToe
				{
					OFFSET 17.300011 0.000001 0.000002
					CHANNELS 3 Xrotation Yrotation Zrotation
					End Site
					{
						OFFSET 0.000000 0.000000 0.000000
					}
				}
			}
		}
	}
	JOINT Spine
	{
		OFFSET 6.901965 -2.603721 0.000001
		CHANNELS 3 Xrotation Yrotation Zrotation
		JOINT Spine1
		{
			OFFSET 12.588100 0.000000 -0.000000
			CHANNELS 3 Xrotation Yrotation Zrotation
			JOINT Spine2
			{
				OFFSET 12.343206 0.000005 0.000000
				CHANNELS 3 Xrotation Yrotation Zrotation
				JOINT Neck
				{
					OFFSET 25.832893 -0.000008 0.000000
					CHANNELS 3 Xrotation Yrotation Zrotation
					JOINT Head
					{
						OFFSET 11.766617 0.000009 0.000001
						CHANNELS 3 Xrotation Yrotation Zrotation
						End Site
						{
							OFFSET 0.000000 0.000000 0.000000
						}
					}
				}
				JOINT LeftShoulder
				{
					OFFSET 19.745899 -1.480394 6.000106
					CHANNELS 3 Xrotation Yrotation Zrotation
					JOINT LeftArm
					{
						OFFSET 11.284122 -0.000030 -0.000014
						CHANNELS 3 Xrotation Yrotation Zrotation
						JOINT LeftForeArm
						{
							OFFSET 33.000050 0.000020 0.000016
							CHANNELS 3 Xrotation Yrotation Zrotation
							JOINT LeftHand
							{
								OFFSET 25.200014 -0.000003 0.000011
								CHANNELS 3 Xrotation Yrotation Zrotation
								End Site
								{
									OFFSET 0.000000 0.000000 0.000000
								}
							}
						}
					}
				}
				JOINT RightShoulder
				{
					OFFSET 19.746094 -1.480381 -6.000073
					CHANNELS 3 Xrotation Yrotation Zrotation
					JOINT RightArm
					{
						OFFSET 11.284140 -0.000016 -0.000006
						CHANNELS 3 Xrotation Yrotation Zrotation
						JOINT RightForeArm
						{
							OFFSET 33.000088 0.000015 0.000002
							CHANNELS 3 Xrotation Yrotation Zrotation
							JOINT RightHand
							{
								OFFSET 25.199776 0.000133 0.000416
								CHANNELS 3 Xrotation Yrotation Zrotation
								End Site
								{
									OFFSET 0.000000 0.000000 0.000000
								}
							}
						}
					}
				}
			}
		}
	}
}
MOTION
Frames: 8
Frame Time: 0.033333
-147.616699 76.351646 624.472778 87.414168 -8.610921 127.735958 147.003580 -2.151399 171.851193 -81.505406 1.924023 -13.347019 102.952206 8.514488 -5.003963 21.454563 0.003110 0.000020 112.094893 6.258303 169.115484 -70.446708 -5.932296 7.192936 85.157050 -3.407067 6.972163 21.454551 -0.003093 -0.000000 13.244012 0.944094 -1.401156 16.453700 2.078039 -2.653923 16.135752 2.061850 -2.666430 -2.992089 -3.015346 3.648045 0.901256 -6.537952 3.946338 125.973987 -70.433812 54.088049 -28.831755 36.003768 12.223767 -48.436549 -23.490807 2.297659 -2.387063 -26.305502 25.232788 164.019712 73.108200 -15.062684 -23.502881 -53.450779 10.374427 -86.320846 7.094087 -2.638682 4.388503 25.853113 -5.987304 
-145.655106 75.638893 632.470581 87.796433 -6.699228 129.362062 151.472941 -4.808194 173.122769 -85.369489 1.747132 -15.465133 103.054386 9.938956 -0.814766 21.454563 0.003109 0.000018 116.984284 6.714598 163.558237 -52.901837 -5.565879 1.599943 66.527675 3.838779 12.806576 21.454550 -0.003091 -0.000002 13.270284 1.453337 -1.312293 16.501208 3.079081 -2.404306 16.182924 3.064376 -2.422876 0.505842 -4.958000 3.874465 -0.789720 -7.043360 3.986087 131.093200 -69.694916 48.961166 -24.937243 40.381417 16.816453 -45.151864 -24.746677 2.276704 0.280858 -25.546449 25.120268 164.450424 73.021197 -14.625168 -18.903757 -52.236505 2.538376 -83.632504 9.908905 -2.717768 4.824242 28.232387 -5.739081 
-144.719406 74.851082 639.672729 88.579596 -2.839351 133.838991 153.542092 -8.104906 172.344579 -91.388102 3.566251 -17.540998 102.813902 11.252051 -1.033232 21.454562 0.003110 0.000010 124.830177 8.537594 162.118297 -51.529706 -4.016321 0.426753 71.638255 7.456675 23.033531 21.454555 -0.003096 0.000000 13.286945 1.881282 -1.585649 16.520652 3.969780 -2.887503 16.202180 3.952153 -2.911441 7.613002 -3.818238 3.582104 -2.363055 -7.311014 4.471941 128.891448 -69.550047 51.210016 -18.081999 43.881507 25.283533 -42.594453 -24.390312 2.174727 3.950059 -25.512585 16.320749 167.167992 72.462918 -11.861703 -17.054863 -52.273842 -1.399262 -80.085710 12.311159 -2.731627 0.136721 26.527673 -15.745329 
-143.680298 73.656548 646.383484 90.115269 0.392969 138.524050 153.741479 -10.452307 171.085051 -98.320669 5.113153 -19.455572 103.617002 12.396220 -3.482332 21.454557 0.003107 0.000019 126.950417 10.629595 169.638594 -63.108810 -4.065489 -1.621623 81.510815 6.558633 21.921687 21.454551 -0.003097 0.000000 13.091759 2.123956 -1.723699 16.121436 4.467423 -3.136215 15.802823 4.448274 -3.163160 12.518644 -3.400152 2.918082 -3.362132 -7.228033 4.125848 130.774149 -69.986975 49.259601 -12.075721 46.170392 30.486358 -42.494288 -23.446342 2.108880 5.267689 -21.708901 14.081406 172.835615 73.671103 -5.999811 -16.657778 -53.484920 -2.814168 -78.172512 13.173522 -2.709324 2.416086 23.239736 -13.839274 
-142.241699 74.483093 650.848389 91.392835 1.633721 137.880004 153.841241 -10.570799 166.706736 -101.060503 5.756492 -20.493989 104.324316 13.077762 -3.394147 21.454562 0.003108 0.000011 129.592348 11.312391 176.609212 -66.403994 -5.891044 -4.341964 84.313146 7.047786 17.542115 21.454550 -0.003101 -0.000001 13.148929 1.899586 -1.060744 16.262783 3.929412 -1.844443 15.944057 3.918074 -1.868176 15.851122 -3.922951 2.868625 -5.230645 -7.681684 4.381161 137.383436 -68.521551 42.656102 -7.510310 46.385485 28.715362 -44.890185 -22.210925 2.098572 3.961888 -22.436003 16.095575 168.967610 73.426610 -9.976068 -16.607514 -50.024763 -0.974107 -78.464598 12.709099 -2.689280 5.577423 22.306652 -7.247615 
-140.945496 76.937263 654.325684 91.158655 2.045140 137.838996 152.203293 -9.913185 164.906366 -100.793177 4.986037 -20.203821 104.018194 12.921220 -3.619555 21.454562 0.003109 0.000021 134.218599 10.644609 176.434537 -64.050119 -2.926065 -3.610617 85.825029 5.764078 15.556794 21.454555 -0.003100 0.000000 13.004034 1.750301 -0.561721 15.989280 3.561390 -0.876109 15.670547 3.555906 -0.897644 16.869049 -2.896535 3.306976 -4.907525 -8.803540 5.266411 138.873114 -69.561099 41.051093 -5.927695 49.737458 28.810636 -45.237480 -22.953109 2.158841 5.272263 -25.526799 13.174337 170.479322 74.909499 -8.371384 -19.750489 -47.793907 1.493870 -78.488702 12.988844 -2.710000 3.659296 22.615407 -13.372411 
-139.915100 80.688347 656.273499 90.823409 1.274048 138.223016 150.040705 -8.287507 164.187393 -97.306147 4.148329 -18.497042 102.660011 11.832312 -5.506676 21.454550 0.003109 0.000024 139.121651 10.736497 179.695160 -57.377469 -3.948640 -3.526062 83.643815 5.714179 14.096264 21.454551 -0.003080 0.000001 12.726831 1.467389 -0.276231 15.441369 2.958478 -0.353940 15.122829 2.956147 -0.371833 18.518975 -2.723742 3.682218 -5.341579 -8.869688 5.790734 139.638915 -70.120730 40.224996 -2.521868 51.687863 30.917623 -47.986925 -23.264528 2.267525 6.845097 -25.490879 11.119404 170.459788 74.907224 -8.391498 -18.856532 -45.409218 3.920789 -81.960938 10.863221 -2.711584 1.519166 18.994032 -19.311977 
-138.874695 85.108002 657.896729 90.679709 0.403439 140.199960 148.711264 -5.354600 166.092442 -91.499857 3.164091 -17.462700 99.901243 11.106840 -7.008718 21.454551 0.003107 0.000022 144.481724 11.300600 -178.975094 -49.649188 -3.392536 -2.315393 77.571319 5.293574 12.893301 21.454548 -0.003102 -0.000000 12.528952 1.250865 -0.240953 15.045177 2.522430 -0.317022 14.726745 2.520335 -0.332269 18.857493 -2.490096 3.734380 -5.081488 -9.563328 6.034654 138.052439 -70.471590 41.814066 -0.077612 51.933186 33.787880 -50.408719 -22.808712 2.317605 5.861859 -23.323687 11.943281 170.570902 75.274586 -8.264400 -16.501886 -44.894086 6.404817 -86.469273 7.319833 -2.661024 2.985894 19.662009 -17.507035 
